<svg fill="#FFFFFF" xmlns="http://www.w3.org/2000/svg" xmlns:xlink="http://www.w3.org/1999/xlink" viewBox="0 0 24 24" version="1.1" x="0px" y="0px"><title>25 -Scroll- (medieval, antique, old)</title><desc>Created with Sketch.</desc><g stroke="none" stroke-width="1" fill="none" fill-rule="evenodd"><g fill="#FFFFFF"><path d="M22,7.9996 L18,7.9996 L18,3.9996 C18,2.8966 18.897,1.9996 20,1.9996 C21.103,1.9996 22,2.8966 22,3.9996 L22,7.9996 Z M13,6.9996 L12,6.9996 C11.447,6.9996 11,6.5516 11,5.9996 C11,5.4476 11.447,4.9996 12,4.9996 L13,4.9996 C13.553,4.9996 14,5.4476 14,5.9996 C14,6.5516 13.553,6.9996 13,6.9996 L13,6.9996 Z M13,10.9996 L11,10.9996 C10.447,10.9996 10,10.5516 10,9.9996 C10,9.4476 10.447,8.9996 11,8.9996 L13,8.9996 C13.553,8.9996 14,9.4476 14,9.9996 C14,10.5516 13.553,10.9996 13,10.9996 L13,10.9996 Z M13,14.9996 L12,14.9996 C11.447,14.9996 11,14.5516 11,13.9996 C11,13.4476 11.447,12.9996 12,12.9996 L13,12.9996 C13.553,12.9996 14,13.4476 14,13.9996 C14,14.5516 13.553,14.9996 13,14.9996 L13,14.9996 Z M4,21.9996 C2.897,21.9996 2,21.1026 2,19.9996 L10,19.9996 C10,20.2456 10.03,20.4836 10.073,20.7176 C10.083,20.7746 10.094,20.8306 10.107,20.8866 C10.159,21.1146 10.224,21.3376 10.313,21.5486 C10.318,21.5596 10.324,21.5706 10.329,21.5826 C10.391,21.7256 10.459,21.8656 10.537,21.9996 L4,21.9996 Z M7,12.9996 L9,12.9996 C9.553,12.9996 10,13.4476 10,13.9996 C10,14.5516 9.553,14.9996 9,14.9996 L7,14.9996 C6.447,14.9996 6,14.5516 6,13.9996 C6,13.4476 6.447,12.9996 7,12.9996 L7,12.9996 Z M7,8.9996 C7.552,8.9996 8,9.4476 8,9.9996 C8,10.5516 7.552,10.9996 7,10.9996 C6.448,10.9996 6,10.5516 6,9.9996 C6,9.4476 6.448,8.9996 7,8.9996 L7,8.9996 Z M7,4.9996 L9,4.9996 C9.553,4.9996 10,5.4476 10,5.9996 C10,6.5516 9.553,6.9996 9,6.9996 L7,6.9996 C6.447,6.9996 6,6.5516 6,5.9996 C6,5.4476 6.447,4.9996 7,4.9996 L7,4.9996 Z M20,-0.0004 L5,-0.0004 C3.346,-0.0004 2,1.3456 2,2.9996 L2,17.9996 L1,17.9996 C0.447,17.9996 0,18.4476 0,18.9996 L0,19.9996 C0,22.2056 1.794,23.9996 4,23.9996 L14,23.9996 C16.206,23.9996 18,22.2056 18,19.9996 L18,18.9996 L18,18.9996 L18,18.9996 L18,9.9996 L23,9.9996 C23.553,9.9996 24,9.5516 24,8.9996 L24,3.9996 C24,1.7936 22.206,-0.0004 20,-0.0004 L20,-0.0004 Z"></path></g></g></svg>