<svg fill="#FFFFFF" xmlns="http://www.w3.org/2000/svg" xmlns:xlink="http://www.w3.org/1999/xlink" version="1.1" x="0px" y="0px" viewBox="0 0 50 50" enable-background="new 0 0 50 50" xml:space="preserve"><g><path fill="#FFFFFF" d="M38.439,38.435H8.254v3.442h30.185V38.435L38.439,38.435z M38.439,31.014H8.254v3.445h30.185V31.014   L38.439,31.014z M38.69,16.169H27.733v3.451H38.69V16.169L38.69,16.169z M38.69,23.591H27.733v3.447H38.69V23.591L38.69,23.591z    M38.69,8.747H27.733v3.451H38.69V8.747L38.69,8.747z M24.176,8.675H8.458v18.083h15.719V8.675L24.176,8.675z M42.365,45.762H4.24   V4.236h38.125V45.762L42.365,45.762z M0,0v50h46.603V0H0L0,0z"></path></g></svg>