<svg id="Layer_1" data-name="Layer 1" xmlns="http://www.w3.org/2000/svg" viewBox="0 0 285.47 352.41"><defs><style>.cls-1{fill:#fff;}</style></defs><title>fakoli_glyph</title><path class="cls-1" d="M392.73,158q0,35.44-24.86,60.17t-60.29,24.73q-5.67,0-16.73.25t-16.73.25V373.85q0,24.12-13.54,37.78t-37.65,13.66H107.26V254q0-49,38.39-49h77.27V124.55q0-24.12,13.54-37.9t37.65-13.78h33.47q35.68,0,60.42,24.73T392.73,158ZM222.92,374.09V243.42H184q-38.39,0-38.39,51.68v79h77.27ZM354.58,158q0-19.93-13.54-33.47T307.58,111q-10.09,0-21.16,6.89-12.31,7.88-12.3,17.23v69.64h33.47q19.69,0,33.35-13.54T354.58,158Z" transform="translate(-107.26 -72.87)"/></svg>