<svg id="Layer_1" data-name="Layer 1" xmlns="http://www.w3.org/2000/svg" viewBox="0 0 1365.08 352.41"><defs><style>.cls-1{fill:#fff;}</style></defs><title>fakoli_logo</title><path class="cls-1" d="M392.73,158q0,35.44-24.86,60.17t-60.29,24.73q-5.67,0-16.73.25t-16.73.25V373.85q0,24.12-13.54,37.78t-37.65,13.66H107.26V254q0-49,38.39-49h77.27V124.55q0-24.12,13.54-37.9t37.65-13.78h33.47q35.68,0,60.42,24.73T392.73,158ZM222.92,374.09V243.42H184q-38.39,0-38.39,51.68v79h77.27ZM354.58,158q0-19.93-13.54-33.47T307.58,111q-10.09,0-21.16,6.89-12.31,7.88-12.3,17.23v69.64h33.47q19.69,0,33.35-13.54T354.58,158Z" transform="translate(-107.26 -72.87)"/><path class="cls-1" d="M523.75,169.29c0-23.4-.45-37.35-1.35-48.15,7.65-2.25,23.4-4.95,37.8-6.3H679c-1.8,12.15-5.85,19.35-10.8,23.85-4.5,3.6-13.5,3.6-31.5,3.6H563.35v104.4h108c-2.25,24.75-13,27.9-28.35,27.9H563.35c0,49.5.45,86.85,1.35,120.6-6.3,2.25-21.6,3.6-32.85,3.6-5,0-8.1-1.35-8.1-7.65V169.29Z" transform="translate(-107.26 -72.87)"/><path class="cls-1" d="M865.3,373.59c0.9,18.45-10.35,27.9-28.8,27.9-18.9,0-28.8-13.5-31.5-28.35-12.15,14-33.3,28.35-57.6,28.35-30.6,0-52.2-23.4-52.2-50.85,0-48.6,63-61.65,87.3-67,8.1-1.8,16.65-3.6,22.5-4.5v-13.5c0.45-21.15-12.15-41.4-38.7-41.4-17.1,0-33.3,8.1-45.9,16.65-12.15,5-18.45-5.4-19.35-16.65,14.4-13,44.1-30.15,73.8-30.15,45.45,0,67.5,32.4,67.5,75.15,0,19.35-1.8,62.55-1.35,90,0.45,9,5.85,14.4,15.3,14.4a55.24,55.24,0,0,0,8.55-.9Zm-102.15-1.35c18.9,0,31.5-11.7,38.25-21.15,2.25-3.15,3.15-7.2,3.15-14.85v-35.1c-36.45,5.85-71.1,18-71.1,43.2C733.45,361.44,746.5,372.24,763.15,372.24Z" transform="translate(-107.26 -72.87)"/><path class="cls-1" d="M943.6,292.14c27.9-25.65,79.2-81,94.95-98.1,5.85,0,14.85.45,23,2.7,8.1,2.7,9,5.85-3.6,19.35-18.45,19.8-48.15,47.7-73.35,72.45,17.1,23,72,86.4,93.15,104.85l-0.45,1.35c-5.4,3.15-17.1,5-27.9,5-11.25,0-18.9-4.05-27.45-14-17.1-18.45-61.2-65.25-78.3-90v89.55c0,9-2.7,11.25-10.8,12.15a243.57,243.57,0,0,1-28.35,1.35c0.9-18,1.35-44.55,1.35-82.35V146.79c0-27-.9-40.5-1.8-49.95,7.2-3.6,27-6.3,33.3-6.3,4.5,0,6.3,2.25,6.3,29.25V292.14Z" transform="translate(-107.26 -72.87)"/><path class="cls-1" d="M1284.7,295.74c0,59.85-38.25,105.75-99,105.75-65.7,0-97.65-48.6-97.65-101.7,0-59.4,41.4-105.75,100.8-105.75C1251.85,194,1284.7,238.59,1284.7,295.74Zm-156.15-.9c0,54.9,27.9,81.9,60.75,81.9,27,0,54.9-22.5,54.9-77.85,0-41.4-18-80.1-58.95-80.1C1154.65,218.79,1128.55,245.79,1128.55,294.84Z" transform="translate(-107.26 -72.87)"/><path class="cls-1" d="M1332.84,146.34c0-26.55-.9-40.5-1.8-49.5,9-4,26.55-6.3,33.3-6.3,5,0,6.3,2.25,6.3,29.25v216.9c0,22,.9,46.35,1.8,58.95-8.1,2.25-28.8,3.6-33.75,3.6-4,0-5.85-1.35-5.85-5.85v-247Z" transform="translate(-107.26 -72.87)"/><path class="cls-1" d="M1472.34,124.74c0,12.15-8.55,22.95-21.6,22.95-12.15,0-21.6-7.65-21.6-22,0-15.75,13.05-22.95,22.5-22.95C1464.69,102.69,1472.34,112.14,1472.34,124.74Zm-2.25,260.55c0,8.1-2.25,10.35-9,11.25-6.3,1.35-17.55,1.8-30.15,2.25,0.45-18,1.35-44.1,1.35-70.65v-76c0-27.45-.9-41.4-1.8-50.85,7.65-2.7,26.55-4.5,33.3-4.5,4.5,0,6.3,2.25,6.3,27.9V385.29Z" transform="translate(-107.26 -72.87)"/></svg>